<svg width="18" height="18" viewBox="0 0 18 18" fill="none" xmlns="http://www.w3.org/2000/svg">
<path fill-rule="evenodd" clip-rule="evenodd" d="M16.7743 12.1919C16.7551 12.1505 16.7372 12.1162 16.7206 12.0887C16.4454 11.5931 15.9196 10.9849 15.1435 10.2638L15.1271 10.2473L15.1189 10.2392L15.1106 10.2309H15.1023C14.75 9.89508 14.527 9.66931 14.4336 9.55371C14.2626 9.33352 14.2244 9.11063 14.3178 8.8848C14.3838 8.71417 14.6317 8.35383 15.0609 7.80329C15.2867 7.51152 15.4655 7.27767 15.5975 7.1015C16.5499 5.83539 16.9628 5.02633 16.8361 4.674L16.7869 4.59167C16.7538 4.5421 16.6685 4.49675 16.5311 4.4554C16.3933 4.41413 16.2172 4.4073 16.0025 4.43481L13.6246 4.45123C13.5861 4.43758 13.5311 4.43886 13.4594 4.4554C13.3878 4.47194 13.352 4.48024 13.352 4.48024L13.3106 4.50092L13.2778 4.52576C13.2503 4.54219 13.22 4.57108 13.1869 4.61237C13.154 4.65353 13.1265 4.70182 13.1046 4.75686C12.8457 5.42291 12.5513 6.04217 12.221 6.6146C12.0173 6.95594 11.8302 7.25176 11.6594 7.50224C11.4888 7.75262 11.3457 7.9371 11.2302 8.05535C11.1145 8.17372 11.0101 8.26855 10.9163 8.34018C10.8227 8.41185 10.7513 8.44213 10.7018 8.43105C10.6522 8.41997 10.6055 8.40898 10.5613 8.39799C10.4843 8.34843 10.4223 8.28101 10.3756 8.1957C10.3287 8.11039 10.2971 8.00301 10.2806 7.87365C10.2642 7.74421 10.2545 7.63287 10.2517 7.53925C10.2491 7.44576 10.2503 7.31351 10.2559 7.14288C10.2616 6.97217 10.2642 6.85666 10.2642 6.7961C10.2642 6.5869 10.2683 6.35985 10.2764 6.1149C10.2848 5.86995 10.2915 5.67587 10.2971 5.53289C10.3028 5.38977 10.3054 5.23834 10.3054 5.0787C10.3054 4.91907 10.2956 4.79387 10.2764 4.70301C10.2575 4.61226 10.2283 4.52417 10.19 4.43877C10.1514 4.35346 10.0948 4.28746 10.0207 4.24061C9.9464 4.19382 9.85403 4.15669 9.74411 4.1291C9.45234 4.06307 9.08081 4.02736 8.62934 4.0218C7.60555 4.01082 6.94772 4.07693 6.65597 4.22005C6.54038 4.28052 6.43578 4.36314 6.34225 4.46766C6.24315 4.5888 6.22932 4.65492 6.30087 4.66579C6.63119 4.71527 6.86504 4.83364 7.00266 5.02078L7.05226 5.11994C7.09084 5.19149 7.12936 5.31816 7.16791 5.49978C7.2064 5.68139 7.23125 5.8823 7.24218 6.10238C7.26965 6.50427 7.26965 6.8483 7.24218 7.13449C7.21462 7.4208 7.18859 7.64368 7.16375 7.80332C7.13891 7.96296 7.10177 8.09231 7.05226 8.19136C7.00266 8.29044 6.96967 8.351 6.95312 8.37298C6.93661 8.39496 6.92285 8.40881 6.91191 8.41425C6.84037 8.44166 6.76596 8.45563 6.68894 8.45563C6.61181 8.45563 6.51829 8.41705 6.40822 8.33995C6.29818 8.26285 6.18398 8.15695 6.06561 8.02207C5.94724 7.88716 5.81375 7.69863 5.66507 7.45646C5.51651 7.21428 5.36237 6.92806 5.20273 6.5978L5.07065 6.35829C4.98809 6.2042 4.8753 5.97984 4.73218 5.68541C4.58897 5.39086 4.46238 5.10595 4.35235 4.83072C4.30836 4.71513 4.24228 4.62712 4.15422 4.56657L4.11289 4.54172C4.08542 4.51974 4.04131 4.49641 3.98081 4.47154C3.92023 4.44669 3.85701 4.42888 3.7909 4.41792L1.52854 4.43434C1.29735 4.43434 1.14049 4.48672 1.0579 4.59132L1.02484 4.6408C1.00833 4.66836 1 4.71238 1 4.77297C1 4.83352 1.01651 4.90785 1.04957 4.99585C1.37983 5.77206 1.73899 6.52064 2.12703 7.24173C2.51508 7.96281 2.85228 8.54366 3.13844 8.98376C3.42466 9.42418 3.7164 9.83985 4.01367 10.2306C4.31093 10.6214 4.5077 10.8719 4.60398 10.9819C4.70037 11.0922 4.77608 11.1746 4.83111 11.2296L5.03757 11.4277C5.16967 11.5599 5.36367 11.7181 5.61964 11.9025C5.87566 12.087 6.15911 12.2686 6.47011 12.4476C6.78117 12.6264 7.14304 12.7722 7.55593 12.8851C7.96876 12.998 8.37057 13.0433 8.76142 13.0214H9.71097C9.90354 13.0048 10.0494 12.9443 10.1486 12.8397L10.1815 12.7984C10.2036 12.7655 10.2242 12.7145 10.2433 12.6458C10.2626 12.577 10.2722 12.5012 10.2722 12.4187C10.2666 12.1821 10.2846 11.9688 10.3258 11.7789C10.367 11.5891 10.4139 11.446 10.4663 11.3496C10.5188 11.2533 10.5779 11.172 10.6438 11.1061C10.7098 11.0401 10.7568 11.0001 10.7844 10.9863C10.8118 10.9725 10.8337 10.9631 10.8502 10.9574C10.9823 10.9134 11.1378 10.9561 11.3169 11.0855C11.4958 11.2149 11.6636 11.3746 11.8206 11.5644C11.9775 11.7544 12.166 11.9676 12.3861 12.2043C12.6064 12.441 12.799 12.617 12.9641 12.7327L13.1291 12.8318C13.2394 12.8979 13.3825 12.9585 13.5587 13.0135C13.7345 13.0685 13.8886 13.0823 14.0209 13.0548L16.1346 13.0218C16.3436 13.0218 16.5063 12.9872 16.6217 12.9185C16.7373 12.8497 16.806 12.7739 16.8282 12.6915C16.8503 12.6089 16.8514 12.5153 16.8324 12.4106C16.8128 12.3062 16.7935 12.2332 16.7743 12.1919Z" fill="#6E7178"/>
</svg>
